<mxfile host="app.diagrams.net" agent="Mozilla/5.0 (Windows NT 10.0; Win64; x64) AppleWebKit/537.36 (KHTML, like Gecko) Chrome/137.0.0.0 Safari/537.36" version="27.1.6">
  <diagram name="第 1 页" id="FyYwuIMv7pIzDTBWUkwP">
    <mxGraphModel dx="744" dy="382" grid="1" gridSize="10" guides="1" tooltips="1" connect="1" arrows="1" fold="1" page="1" pageScale="1" pageWidth="827" pageHeight="1169" math="0" shadow="0">
      <root>
        <mxCell id="0" />
        <mxCell id="1" parent="0" />
        <mxCell id="1FttGRvpAy5LGu-Mhhtg-7" value="地轨" style="rounded=0;whiteSpace=wrap;html=1;" parent="1" vertex="1">
          <mxGeometry x="160" y="100" width="490" height="330" as="geometry" />
        </mxCell>
        <mxCell id="1FttGRvpAy5LGu-Mhhtg-3" value="隔板" style="rounded=0;whiteSpace=wrap;html=1;" parent="1" vertex="1">
          <mxGeometry x="560" y="20" width="20" height="480" as="geometry" />
        </mxCell>
        <mxCell id="1FttGRvpAy5LGu-Mhhtg-4" value="板链" style="rounded=0;whiteSpace=wrap;html=1;" parent="1" vertex="1">
          <mxGeometry x="240" y="20" width="320" height="480" as="geometry" />
        </mxCell>
        <mxCell id="1FttGRvpAy5LGu-Mhhtg-5" value="隔板" style="rounded=0;whiteSpace=wrap;html=1;" parent="1" vertex="1">
          <mxGeometry x="220" y="20" width="20" height="480" as="geometry" />
        </mxCell>
        <mxCell id="1FttGRvpAy5LGu-Mhhtg-6" value="地轨" style="rounded=0;whiteSpace=wrap;html=1;" parent="1" vertex="1">
          <mxGeometry x="600" y="150" width="30" height="250" as="geometry" />
        </mxCell>
        <mxCell id="1FttGRvpAy5LGu-Mhhtg-8" value="" style="shape=curlyBracket;whiteSpace=wrap;html=1;rounded=1;flipH=1;labelPosition=right;verticalLabelPosition=middle;align=left;verticalAlign=middle;rotation=-90;size=0.25;" parent="1" vertex="1">
          <mxGeometry x="595" y="45" width="20" height="90" as="geometry" />
        </mxCell>
        <mxCell id="1FttGRvpAy5LGu-Mhhtg-9" value="1400mm(隔板200mm)" style="text;html=1;align=center;verticalAlign=middle;resizable=0;points=[];autosize=1;strokeColor=none;fillColor=none;" parent="1" vertex="1">
          <mxGeometry x="535" y="50" width="140" height="30" as="geometry" />
        </mxCell>
        <mxCell id="1FttGRvpAy5LGu-Mhhtg-10" value="1000mm" style="shape=curlyBracket;whiteSpace=wrap;html=1;rounded=1;flipH=1;labelPosition=right;verticalLabelPosition=middle;align=left;verticalAlign=middle;" parent="1" vertex="1">
          <mxGeometry x="655" y="100" width="25" height="50" as="geometry" />
        </mxCell>
        <mxCell id="1FttGRvpAy5LGu-Mhhtg-12" value="" style="line;strokeWidth=2;html=1;" parent="1" vertex="1">
          <mxGeometry x="240" y="680" width="170" height="10" as="geometry" />
        </mxCell>
        <mxCell id="1FttGRvpAy5LGu-Mhhtg-13" value="" style="line;strokeWidth=2;html=1;rotation=-45;" parent="1" vertex="1">
          <mxGeometry x="207" y="694" width="40" height="10" as="geometry" />
        </mxCell>
        <mxCell id="1FttGRvpAy5LGu-Mhhtg-14" value="" style="line;strokeWidth=2;html=1;rotation=45;" parent="1" vertex="1">
          <mxGeometry x="403.9976695296637" y="693.9976695296638" width="40" height="10" as="geometry" />
        </mxCell>
        <mxCell id="1FttGRvpAy5LGu-Mhhtg-15" value="" style="line;strokeWidth=2;html=1;rotation=90;" parent="1" vertex="1">
          <mxGeometry x="128" y="791" width="170" height="10" as="geometry" />
        </mxCell>
        <mxCell id="1FttGRvpAy5LGu-Mhhtg-16" value="" style="line;strokeWidth=2;html=1;rotation=45;" parent="1" vertex="1">
          <mxGeometry x="206.9976695296637" y="888.9976695296638" width="40" height="10" as="geometry" />
        </mxCell>
        <mxCell id="1FttGRvpAy5LGu-Mhhtg-17" value="" style="line;strokeWidth=2;html=1;" parent="1" vertex="1">
          <mxGeometry x="241" y="903" width="170" height="10" as="geometry" />
        </mxCell>
        <mxCell id="1FttGRvpAy5LGu-Mhhtg-18" value="" style="line;strokeWidth=2;html=1;rotation=-45;" parent="1" vertex="1">
          <mxGeometry x="403.9976695296637" y="888.9976695296638" width="40" height="10" as="geometry" />
        </mxCell>
        <mxCell id="1FttGRvpAy5LGu-Mhhtg-19" value="" style="line;strokeWidth=2;html=1;rotation=90;" parent="1" vertex="1">
          <mxGeometry x="353" y="792" width="170" height="10" as="geometry" />
        </mxCell>
        <mxCell id="1FttGRvpAy5LGu-Mhhtg-21" value="110mm" style="shape=curlyBracket;whiteSpace=wrap;html=1;rounded=1;flipH=1;labelPosition=right;verticalLabelPosition=middle;align=left;verticalAlign=middle;rotation=-45;size=0.3960000000000036;" parent="1" vertex="1">
          <mxGeometry x="317.92" y="660.09" width="20" height="269.67" as="geometry" />
        </mxCell>
        <mxCell id="1FttGRvpAy5LGu-Mhhtg-22" value="12mm" style="shape=curlyBracket;whiteSpace=wrap;html=1;rounded=1;flipH=1;labelPosition=right;verticalLabelPosition=middle;align=left;verticalAlign=middle;rotation=-45;" parent="1" vertex="1">
          <mxGeometry x="421.17" y="671.17" width="20" height="40" as="geometry" />
        </mxCell>
        <mxCell id="1FttGRvpAy5LGu-Mhhtg-23" value="95mm" style="shape=curlyBracket;whiteSpace=wrap;html=1;rounded=1;flipH=1;labelPosition=right;verticalLabelPosition=middle;align=left;verticalAlign=middle;rotation=90;" parent="1" vertex="1">
          <mxGeometry x="288.25" y="808.75" width="74.5" height="225" as="geometry" />
        </mxCell>
        <mxCell id="1FttGRvpAy5LGu-Mhhtg-24" value="92mm" style="shape=curlyBracket;whiteSpace=wrap;html=1;rounded=1;flipH=1;labelPosition=right;verticalLabelPosition=middle;align=left;verticalAlign=middle;rotation=0;" parent="1" vertex="1">
          <mxGeometry x="441.17" y="683.5" width="74.5" height="225" as="geometry" />
        </mxCell>
        <mxCell id="EMxXq2YWqxXCk6TcJ9qh-1" value="铁板" style="rounded=0;whiteSpace=wrap;html=1;" vertex="1" parent="1">
          <mxGeometry x="580" y="100" width="45.67" height="30" as="geometry" />
        </mxCell>
        <mxCell id="EMxXq2YWqxXCk6TcJ9qh-2" value="" style="shape=curlyBracket;whiteSpace=wrap;html=1;rounded=1;flipH=1;labelPosition=right;verticalLabelPosition=middle;align=left;verticalAlign=middle;rotation=-90;size=0.25;" vertex="1" parent="1">
          <mxGeometry x="593" y="72" width="20" height="50" as="geometry" />
        </mxCell>
        <mxCell id="EMxXq2YWqxXCk6TcJ9qh-3" value="66cm" style="text;html=1;align=center;verticalAlign=middle;whiteSpace=wrap;rounded=0;" vertex="1" parent="1">
          <mxGeometry x="572.84" y="70" width="60" height="30" as="geometry" />
        </mxCell>
        <mxCell id="EMxXq2YWqxXCk6TcJ9qh-4" value="" style="shape=curlyBracket;whiteSpace=wrap;html=1;rounded=1;flipH=1;labelPosition=right;verticalLabelPosition=middle;align=left;verticalAlign=middle;rotation=0;size=0.25;" vertex="1" parent="1">
          <mxGeometry x="625.67" y="100" width="20" height="30" as="geometry" />
        </mxCell>
        <mxCell id="EMxXq2YWqxXCk6TcJ9qh-5" value="70cm" style="text;html=1;align=center;verticalAlign=middle;whiteSpace=wrap;rounded=0;rotation=90;" vertex="1" parent="1">
          <mxGeometry x="620" y="100" width="60" height="30" as="geometry" />
        </mxCell>
        <mxCell id="EMxXq2YWqxXCk6TcJ9qh-7" value="" style="shape=curlyBracket;whiteSpace=wrap;html=1;rounded=1;flipH=1;labelPosition=right;verticalLabelPosition=middle;align=left;verticalAlign=middle;rotation=-90;size=0.25;" vertex="1" parent="1">
          <mxGeometry x="631" y="79" width="20" height="30" as="geometry" />
        </mxCell>
        <mxCell id="EMxXq2YWqxXCk6TcJ9qh-8" value="56cm" style="text;html=1;align=center;verticalAlign=middle;whiteSpace=wrap;rounded=0;" vertex="1" parent="1">
          <mxGeometry x="612" y="65" width="60" height="30" as="geometry" />
        </mxCell>
        <mxCell id="EMxXq2YWqxXCk6TcJ9qh-9" value="" style="rounded=0;whiteSpace=wrap;html=1;" vertex="1" parent="1">
          <mxGeometry x="583" y="136" width="10" height="10" as="geometry" />
        </mxCell>
        <mxCell id="EMxXq2YWqxXCk6TcJ9qh-10" value="&lt;font style=&quot;font-size: 8px;&quot;&gt;编码器地脚&lt;/font&gt;" style="text;html=1;align=center;verticalAlign=middle;whiteSpace=wrap;rounded=0;" vertex="1" parent="1">
          <mxGeometry x="560" y="145" width="60" height="15" as="geometry" />
        </mxCell>
        <mxCell id="EMxXq2YWqxXCk6TcJ9qh-13" value="95cm" style="shape=curlyBracket;whiteSpace=wrap;html=1;rounded=1;labelPosition=left;verticalLabelPosition=middle;align=right;verticalAlign=middle;" vertex="1" parent="1">
          <mxGeometry x="560" y="100" width="20" height="40" as="geometry" />
        </mxCell>
        <mxCell id="EMxXq2YWqxXCk6TcJ9qh-14" value="铁板" style="rounded=0;whiteSpace=wrap;html=1;" vertex="1" parent="1">
          <mxGeometry x="180" y="100" width="40" height="40" as="geometry" />
        </mxCell>
        <mxCell id="EMxXq2YWqxXCk6TcJ9qh-15" value="73cm" style="shape=curlyBracket;whiteSpace=wrap;html=1;rounded=1;flipH=1;labelPosition=right;verticalLabelPosition=middle;align=left;verticalAlign=middle;" vertex="1" parent="1">
          <mxGeometry x="217" y="100" width="20" height="40" as="geometry" />
        </mxCell>
        <mxCell id="EMxXq2YWqxXCk6TcJ9qh-16" value="地轨" style="rounded=0;whiteSpace=wrap;html=1;" vertex="1" parent="1">
          <mxGeometry x="177" y="160" width="30" height="250" as="geometry" />
        </mxCell>
        <mxCell id="EMxXq2YWqxXCk6TcJ9qh-19" value="85cm" style="shape=curlyBracket;whiteSpace=wrap;html=1;rounded=1;flipH=1;labelPosition=right;verticalLabelPosition=middle;align=left;verticalAlign=middle;rotation=-90;" vertex="1" parent="1">
          <mxGeometry x="189.5" y="70.5" width="20" height="47" as="geometry" />
        </mxCell>
        <mxCell id="EMxXq2YWqxXCk6TcJ9qh-20" value="&lt;span style=&quot;font-size: 8px;&quot;&gt;立柱相机支架&lt;/span&gt;" style="text;html=1;align=center;verticalAlign=middle;whiteSpace=wrap;rounded=0;" vertex="1" parent="1">
          <mxGeometry x="216.99999999999994" y="146" width="60" height="30" as="geometry" />
        </mxCell>
        <mxCell id="EMxXq2YWqxXCk6TcJ9qh-21" value="" style="rounded=0;whiteSpace=wrap;html=1;" vertex="1" parent="1">
          <mxGeometry x="209" y="145" width="10" height="30" as="geometry" />
        </mxCell>
        <mxCell id="EMxXq2YWqxXCk6TcJ9qh-22" value="86cm" style="shape=curlyBracket;whiteSpace=wrap;html=1;rounded=1;flipH=1;labelPosition=right;verticalLabelPosition=middle;align=left;verticalAlign=middle;size=0.35;" vertex="1" parent="1">
          <mxGeometry x="209" y="100" width="20" height="50" as="geometry" />
        </mxCell>
        <mxCell id="EMxXq2YWqxXCk6TcJ9qh-23" value="" style="rounded=0;whiteSpace=wrap;html=1;rotation=90;" vertex="1" parent="1">
          <mxGeometry x="179.5" y="125.5" width="10" height="51" as="geometry" />
        </mxCell>
        <mxCell id="EMxXq2YWqxXCk6TcJ9qh-24" value="" style="rounded=0;whiteSpace=wrap;html=1;rotation=-180;" vertex="1" parent="1">
          <mxGeometry x="167" y="100" width="10" height="51" as="geometry" />
        </mxCell>
        <mxCell id="EMxXq2YWqxXCk6TcJ9qh-25" value="14cm" style="shape=curlyBracket;whiteSpace=wrap;html=1;rounded=1;flipH=1;labelPosition=right;verticalLabelPosition=middle;align=left;verticalAlign=middle;" vertex="1" parent="1">
          <mxGeometry x="217" y="140" width="20" height="6" as="geometry" />
        </mxCell>
        <mxCell id="EMxXq2YWqxXCk6TcJ9qh-26" value="59cm" style="shape=curlyBracket;whiteSpace=wrap;html=1;rounded=1;flipH=1;labelPosition=right;verticalLabelPosition=middle;align=left;verticalAlign=middle;rotation=-90;" vertex="1" parent="1">
          <mxGeometry x="160" y="86.5" width="20" height="18" as="geometry" />
        </mxCell>
        <mxCell id="EMxXq2YWqxXCk6TcJ9qh-27" value="3cm" style="shape=curlyBracket;whiteSpace=wrap;html=1;rounded=1;flipH=1;labelPosition=right;verticalLabelPosition=middle;align=left;verticalAlign=middle;rotation=-90;" vertex="1" parent="1">
          <mxGeometry x="169.5" y="94.5" width="20" height="5" as="geometry" />
        </mxCell>
        <mxCell id="EMxXq2YWqxXCk6TcJ9qh-28" value="47cm" style="shape=curlyBracket;whiteSpace=wrap;html=1;rounded=1;flipH=1;labelPosition=right;verticalLabelPosition=middle;align=left;verticalAlign=middle;rotation=90;" vertex="1" parent="1">
          <mxGeometry x="154" y="146" width="20" height="5" as="geometry" />
        </mxCell>
      </root>
    </mxGraphModel>
  </diagram>
</mxfile>
